PathFileType	4	(X/Y/Z)	C:/Users/beibeiliu/ov580/test_trc/User2\sequence.16_training_dense_right.trc
DataRate	CameraRate	NumFrames	NumMarkers	Units	OrigDataRate	OrigDataStartFrame	OrigNumFrames
120	120	10	19	mm	120	103	411
Frame#	Time	ThumbCMC			ThumbMCP			ThumbIP			ThumbTip			IndexMCP			IndexPIP			IndexTip			MiddleMCP			MiddlePIP			MiddleTip			RingMCP			RingPIP			RingTip			PinkyMCP			PinkyPIP			PinkyTip			BackHand1			BackHand2			BackHand3	
		X0	Y0	Z0	X1	Y1	Z1	X2	Y2	Z2	X3	Y3	Z3	X4	Y4	Z4	X5	Y5	Z5	X6	Y6	Z6	X7	Y7	Z7	X8	Y8	Z8	X9	Y9	Z9	X10	Y10	Z10	X11	Y11	Z11	X12	Y12	Z12	X13	Y13	Z13	X14	Y14	Z14	X15	Y15	Z15	X16	Y16	Z16	X17	Y17	Z17	X18	Y18	Z18	
102	0.85	51.8887	20.6364	61.8858	27.1209	7.30441	51.1445	-0.57879	-6.98311	31.9848	-12.7107	-20.2583	23.4787	53.6767	14.7471	-21.9668	49.8867	7.13017	-47.5962	48.2049	-1.23596	-75.5401	81.2486	-9.60632	-24.8113	84.8708	-45.0986	-11.606	84.031	-31.0447	28.8481	103.319	-18.2027	-12.7639	100.066	-43.5658	6.9078	93.6975	-22.2338	36.6719	119.823	-18.8173	-2.36768	112.243	-37.8311	22.2567	106.856	-15.7214	44.73	105.757	35.8133	16.4711	112.879	51.0574	52.4813	76.641	43.3159	39.1208	
103	0.858333	46.9772	17.254	69.2201	26.1314	2.24116	56.6367	1.2113	-12.6802	39.1286	-18.623	-26.1585	26.6928	48.8032	14.9958	-20.8121	39.1725	7.83038	-46.4046	34.6015	1.00058	-72.9029	77.7228	-7.66234	-22.9966	78.8981	-43.2447	-12.5228	79.422	-36.1067	25.5201	97.0972	-18.1869	-14.1889	99.2978	-41.9553	4.03405	94.3174	-23.9339	35.6895	118.047	-16.8049	-4.24461	110.105	-37.8821	17.9003	103.936	-18.2215	44.2712	103.051	37.5693	19.7681	106.799	50.5465	54.6201	67.7277	41.792	45.0254	
104	0.866667	49.6918	14.7127	71.8224	20.8355	0.132722	60.9528	-1.02259	-15.2916	42.3835	-17.0865	-29.0322	33.3223	38.6052	18.4732	-13.2043	30.1792	13.0686	-41.5242	29.509	7.98048	-68.3245	66.901	-4.40789	-23.8492	76.8176	-38.6156	-16.9426	80.5871	-35.8134	23.0352	94.2855	-12.9161	-15.2261	93.1273	-40.0482	2.87883	93.8455	-22.1058	35.1115	113.641	-9.1446	-5.90144	108.869	-35.4164	15.9192	99.8174	-13.9917	43.6994	98.3949	41.2518	25.7957	105.81	50.0972	58.9788	69.5323	40.771	49.3416	
105	0.875	45.6448	13.9324	73.4996	20.0392	-2.45742	63.5081	-6.0909	-17.8058	45.6465	-21.4132	-30.8014	34.2665	33.9816	22.3157	-11.7795	25.2542	18.0726	-35.8212	20.5572	15.7898	-61.6244	64.2391	2.12729	-22.3989	71.7311	-31.4549	-21.8908	76.5726	-34.9573	19.633	87.4872	-9.80198	-16.0234	88.9079	-36.0458	0.484969	87.751	-24.7893	32.5438	109.147	-5.11638	-6.49444	102.664	-31.896	15.2513	98.3335	-14.691	40.9999	93.9264	41.9796	26.2533	100.017	50.814	61.3312	62.5104	40.1267	51.4234	
106	0.883333	40.2178	12.4625	78.5429	17.8005	-3.12019	67.3445	-7.46985	-18.1478	47.6945	-20.9808	-31.9102	39.089	32.554	25.8074	-8.84922	23.6076	23.6975	-31.2286	14.6551	23.1928	-59.9309	62.2556	6.78992	-21.9456	68.9782	-28.7703	-21.7718	73.8654	-32.4909	20.6678	83.5209	-3.78645	-16.1041	86.8447	-31.2938	-3.93129	83.784	-23.6752	30.3088	107.616	0.338752	-5.55521	103.53	-29.4651	14.664	100.039	-14.9146	40.5743	93.849	46.2455	28.046	101.821	52.162	64.104	60.346	42.2465	53.7562	
107	0.891667	39.64	11.9199	79.9209	19.5781	-3.6724	64.2822	-8.33208	-17.9136	47.3369	-26.2071	-31.4802	39.6988	26.9661	30.1988	-4.48112	13.8281	28.4644	-29.818	7.26166	28.3595	-59.2115	56.2542	11.243	-22.1986	63.0838	-23.3336	-23.0755	74.3611	-31.0703	14.0202	80.7678	1.47502	-14.9922	87.9271	-28.9078	-2.83075	82.2318	-20.5755	29.7984	104.193	1.35632	-6.79315	100.224	-26.3033	8.65357	92.9799	-12.2318	39.937	91.3859	47.2124	30.8913	95.5613	52.7569	64.0814	58.7629	43.4593	58.3137	
108	0.9	41.0524	12.6304	78.2799	14.5744	-2.94909	63.3827	-12.0653	-17.94	49.2796	-26.4709	-30.0124	35.3242	26.8269	33.2095	-3.07755	13.6261	33.1799	-31.5892	4.52229	33.0633	-57.8971	54.456	18.2899	-17.6343	65.7374	-17.7653	-26.5994	70.2352	-28.7568	12.314	80.666	3.20458	-16.9481	87.4024	-25.2425	-5.49245	84.5379	-16.8813	31.4146	101.743	3.1501	-7.93325	97.8203	-22.4727	7.01782	93.9813	-11.3871	40.1222	90.4507	48.6498	33.1275	92.0236	53.8212	66.4307	56.5539	46.1178	58.8532	
109	0.908333	37.5642	13.2824	77.1118	17.0521	-0.742504	62.7398	-11.3214	-15.229	42.3002	-26.1383	-27.0379	29.0677	27.2509	34.0966	-2.67387	17.5003	34.5169	-29.3289	9.2983	37.8036	-60.3088	59.8749	17.9748	-23.3395	63.5857	-16.3162	-26.6438	74.0668	-26.4868	10.8163	85.7093	7.26289	-17.1961	89.836	-21.56	-9.16457	85.0965	-16.4842	27.9095	101.427	8.16725	-8.03402	99.97	-21.3898	8.74838	92.9492	-8.05164	37.2394	88.4923	49.8896	33.6157	94.6608	55.7583	66.5786	58.1506	44.1209	59.3248	
110	0.916667	36.1647	14.2408	70.5047	15.926	-0.670035	56.7845	-10.1628	-13.2418	40.0373	-27.0326	-24.676	23.4809	37.0298	36.2848	-8.25605	27.2767	37.2138	-38.3182	19.8362	39.1257	-64.0328	61.6681	20.4883	-22.6946	73.8679	-17.549	-26.1816	76.6006	-24.5865	12.4422	89.6793	10.5918	-16.6681	90.1676	-22.5154	-6.80554	85.9728	-16.3943	24.9996	107.941	9.54913	-7.93801	102.166	-18.6858	7.40845	97.7876	-7.72703	39.3799	91.6997	51.2085	33.7747	94.5454	53.9195	69.1146	56.7579	46.4836	54.6524	
111	0.925	41.32	14.4724	65.1591	20.3944	0.710217	50.9621	-5.50271	-10.9179	32.6117	-19.9531	-22.4436	15.5187	44.6002	35.9703	-15.1441	39.538	37.1887	-44.3594	36.671	38.2494	-71.8382	73.3721	18.5588	-26.1387	80.0099	-17.3727	-29.4034	79.8669	-23.5658	14.1136	98.8605	8.1366	-17.6455	98.0238	-21.6861	-6.997	90.6083	-13.4841	28.4628	113.55	10.8094	-4.85104	109.848	-18.9681	9.89526	102.051	-7.93605	38.0851	90.3769	50.7016	28.9765	97.2847	56.2478	64.852	58.8777	46.4694	54.4531	
